<?xml version="1.0" encoding="utf-8"?>
<!-- Generator: Adobe Illustrator 27.5.0, SVG Export Plug-In . SVG Version: 6.00 Build 0)  -->
<svg version="1.1" id="Layer_1" xmlns:vectornator="http://vectornator.io"
	 xmlns="http://www.w3.org/2000/svg" xmlns:xlink="http://www.w3.org/1999/xlink" x="0px" y="0px" viewBox="0 0 250 250"
	 style="enable-background:new 0 0 250 250;" xml:space="preserve">
<style type="text/css">
	.st0{fill:#ED1C24;}
	.st1{fill:none;}
	.st2{fill:#FFFFFF;}
	.st3{font-family:'Mono45Headline-Regular';}
	.st4{font-size:36.4013px;}
	.st5{font-size:35.9989px;}
	.st6{fill:none;stroke:#FFFFFF;stroke-width:5;stroke-miterlimit:3.2767;}
	.st7{fill:#5BCEFA;}
	.st8{fill:#F5A9B8;}
</style>
<g id="g2896" vectornator:layerName="g2896">
	<path class="st0" d="M125,0C56,0,0,56,0,125s56,125,125,125s125-56,125-125S194,0,125,0z M124.8,40.5c46.5,0,84.1,37.9,84.1,84.6
		s-37.7,84.6-84.1,84.6c-46.5,0-84.1-37.9-84.1-84.6C40.7,78.4,78.3,40.5,124.8,40.5z"/>
</g>
<circle class="st1" cx="125" cy="125" r="91"/>
<text transform="matrix(0.9856 -0.1693 0.1693 0.9856 101.595 36.6731)" class="st2 st3 st4">A</text>
<text transform="matrix(0.9999 1.663608e-02 -1.663608e-02 0.9999 117.0349 33.8178)" class="st2 st3 st4">W</text>
<text transform="matrix(0.9852 0.1711 -0.1711 0.9852 132.7854 33.9528)" class="st2 st3 st4">U</text>
<circle class="st1" cx="125" cy="125" r="116.5"/>
<text transform="matrix(0.8646 0.5024 -0.5024 0.8646 59.7071 221.8213)" class="st2 st3 st5">C</text>
<text transform="matrix(0.93 0.3675 -0.3675 0.93 74.8013 230.4761)" class="st2 st3 st5">W</text>
<text transform="matrix(0.9749 0.2226 -0.2226 0.9749 91.1654 236.7478)" class="st2 st3 st5">A</text>
<text transform="matrix(0.9971 7.602187e-02 -7.602187e-02 0.9971 108.13 240.5914)" class="st2 st3 st5"> </text>
<text transform="matrix(0.9975 -7.045443e-02 7.045443e-02 0.9975 125.4864 241.7712)" class="st2 st3 st5">9</text>
<text transform="matrix(0.9758 -0.2188 0.2188 0.9758 142.9104 240.4466)" class="st2 st3 st5">0</text>
<text transform="matrix(0.9321 -0.3623 0.3623 0.9321 159.9199 236.452)" class="st2 st3 st5">0</text>
<text transform="matrix(0.8665 -0.4991 0.4991 0.8665 176.1405 230.0321)" class="st2 st3 st5">9</text>
<path class="st2" d="M61.8,33.3c-1.6-0.9-3.4-1.5-5.2-1.9s-3.7-0.5-5.6-0.3c-1.8,0.2-3.6,0.6-5.3,1.3c-4.7,1.9-8.4,5.5-10.3,10.2
	c-0.5,1.2-0.9,2.3-1.1,3.6c-0.4,1.8-0.5,3.7-0.3,5.5s0.6,3.6,1.3,5.4c2.7,6.8,9,11.1,15.8,11.7c0.6,0.1,1.2,0.1,1.8,0.1
	c1.3,0,2.6-0.1,3.9-0.4c1.1-0.2,2.2-0.5,3.2-1c1.2-0.5,2.4-1.1,3.5-1.9c0.1,0,0.1-0.1,0.2-0.1l0.1,0.1L82,83.8
	c1.6,1.6,4.2,1.6,5.8,0l0,0c1.6-1.6,1.6-4.2,0-5.8l0,0L69.4,59.8c-0.1-0.1-0.2-0.2-0.3-0.3c0.4-0.7,0.8-1.4,1.1-2.2
	c0.8-1.8,1.2-3.7,1.4-5.7c0.2-1.8,0.1-3.7-0.3-5.5c-0.2-1.1-0.6-2.2-1-3.3C68.5,38.6,65.5,35.4,61.8,33.3 M57.7,62.4
	c-0.2,0.1-0.3,0.1-0.5,0.2c-1.9,0.7-3.8,0.9-5.6,0.8c-4.9-0.4-9.4-3.5-11.3-8.3c-0.4-1.1-0.7-2.2-0.9-3.3c-0.2-1.9-0.1-3.7,0.5-5.5
	c0.1-0.5,0.3-0.9,0.5-1.4c1.4-3.3,4-5.8,7.3-7.2c1.3-0.5,2.6-0.8,3.9-0.9c0.4,0,0.7,0,1.1,0c1.6,0,3.1,0.3,4.5,0.8
	c3.5,1.2,6.4,3.9,7.9,7.6c0.2,0.4,0.3,0.8,0.4,1.2c0.5,1.8,0.7,3.7,0.5,5.5c-0.2,1.2-0.5,2.4-1,3.5C63.6,58.5,61,61,57.7,62.4
	L57.7,62.4z"/>
<path class="st2" d="M49.2,182.8c-0.1-0.4-0.2-0.9-0.4-1.3c-1.1-2.6-3.1-4.6-5.6-5.7c-0.5-0.2-1-0.4-1.5-0.5c-1.7-0.4-3.5-0.4-5.2,0
	c-0.4,0.1-0.9,0.2-1.3,0.4c-2.6,1.1-4.6,3.1-5.7,5.6c-0.2,0.5-0.4,1-0.5,1.5c-0.4,1.7-0.5,3.5,0,5.2c0.1,0.4,0.2,0.9,0.4,1.3
	c1.1,2.6,3.1,4.6,5.6,5.7c0.5,0.2,0.9,0.3,1.4,0.5c0.9,0.2,1.8,0.4,2.7,0.4s1.7-0.1,2.6-0.3c0.5-0.1,0.9-0.3,1.4-0.4
	c2.6-1.1,4.6-3.1,5.7-5.6c0.2-0.5,0.4-1,0.5-1.5C49.6,186.3,49.6,184.5,49.2,182.8L49.2,182.8z M41.6,190c-0.2,0.1-0.4,0.2-0.6,0.3
	c-1.3,0.5-2.7,0.5-4,0c-0.2-0.1-0.4-0.2-0.6-0.3c-0.8-0.5-1.4-1.1-1.9-1.9c-0.1-0.2-0.2-0.4-0.3-0.6c-0.5-1.3-0.5-2.7,0-4
	c0.1-0.2,0.2-0.4,0.3-0.6c0.5-0.8,1.1-1.5,1.9-1.9c0.2-0.1,0.5-0.2,0.7-0.3c0.6-0.3,1.3-0.4,2-0.4s1.4,0.1,2.1,0.4
	c0.2,0.1,0.3,0.2,0.5,0.3c0.8,0.5,1.5,1.1,2,2c0.1,0.2,0.2,0.4,0.3,0.6c0.5,1.3,0.5,2.7,0,4c-0.1,0.2-0.2,0.4-0.3,0.6
	C43.1,188.9,42.4,189.5,41.6,190L41.6,190z"/>
<path class="st6" d="M34,177.4C25.1,162,20,144.1,20,125c0-23.4,7.7-45.1,20.7-62.5"/>
<path class="st7" d="M245.8,92.8h-43.7c-3.1-7.5-7.2-14.4-12.2-20.6h48.3C241.4,78.8,243.9,85.7,245.8,92.8z"/>
<path class="st8" d="M249.5,113.4h-41.8c-1-7.2-2.9-14.1-5.6-20.6h43.7C247.6,99.5,248.8,106.4,249.5,113.4z"/>
<path class="st2" d="M249.7,134c0.2-3,0.3-6,0.3-9c0-3.9-0.2-7.8-0.5-11.6h-41.8c0.5,3.8,0.8,7.7,0.8,11.6c0,3-0.2,6-0.5,9v0
	L249.7,134L249.7,134z"/>
<path class="st8" d="M249.7,134H208v0c-0.8,7.2-2.4,14.1-4.8,20.6h43.3C248.1,147.9,249.2,141,249.7,134L249.7,134z"/>
<path class="st7" d="M246.5,154.6c-1.7,7.1-4.1,14-6.9,20.6H192c4.6-6.3,8.4-13.2,11.2-20.6H246.5z"/>
<path class="st1" d="M153.7,134v20.6h49.5l0,0h-49.5v20.6H192c-15.4,20.8-40.1,34.3-68,34.3c-46.7,0-84.5-37.8-84.5-84.5
	S77.3,40.5,124,40.5c26.7,0,50.5,12.4,66,31.7h-36.3V134l54.4,0v0H153.7z"/>
<path class="st1" d="M246.5,154.6c-1.7,7.1-4.1,14-6.9,20.6H192c4.6-6.3,8.4-13.2,11.2-20.6H246.5z"/>
<path class="st1" d="M208,134c-0.8,7.2-2.4,14.1-4.8,20.6h43.3c1.6-6.7,2.7-13.5,3.2-20.6v0c0.2-3,0.3-6,0.3-9
	c0-3.9-0.2-7.8-0.5-11.6c-0.6-7.1-1.9-13.9-3.6-20.6c-1.9-7.1-4.4-14-7.5-20.6H190c5,6.2,9.1,13.1,12.2,20.6
	c2.7,6.5,4.6,13.4,5.6,20.6c0.5,3.8,0.8,7.7,0.8,11.6C208.5,128,208.3,131,208,134"/>
</svg>
