<?xml version="1.0" encoding="UTF-8" standalone="no"?> <!-- Created with Vectornator for iOS (http://vectornator.io/) --><!DOCTYPE svg PUBLIC "-//W3C//DTD SVG 1.1//EN" "http://www.w3.org/Graphics/SVG/1.1/DTD/svg11.dtd">
<svg width="250px" height="250px" style="fill-rule:nonzero;clip-rule:evenodd;stroke-linecap:round;stroke-linejoin:round;" xmlns:xlink="http://www.w3.org/1999/xlink" xmlns="http://www.w3.org/2000/svg" xml:space="preserve" xmlns:vectornator="http://vectornator.io" version="1.1" viewBox="0 0 305.188 305.188">
<metadata>
<vectornator:setting key="DimensionsVisible" value="1"/>
<vectornator:setting key="PencilOnly" value="0"/>
<vectornator:setting key="SnapToPoints" value="0"/>
<vectornator:setting key="OutlineMode" value="0"/>
<vectornator:setting key="CMYKEnabledKey" value="0"/>
<vectornator:setting key="RulersVisible" value="1"/>
<vectornator:setting key="SnapToEdges" value="0"/>
<vectornator:setting key="GuidesVisible" value="1"/>
<vectornator:setting key="DisplayWhiteBackground" value="0"/>
<vectornator:setting key="doHistoryDisabled" value="0"/>
<vectornator:setting key="SnapToGuides" value="1"/>
<vectornator:setting key="TimeLapseWatermarkDisabled" value="0"/>
<vectornator:setting key="Units" value="Points"/>
<vectornator:setting key="DynamicGuides" value="1"/>
<vectornator:setting key="IsolateActiveLayer" value="0"/>
<vectornator:setting key="SnapToGrid" value="0"/>
</metadata>
<defs/>
<g id="g2896" vectornator:layerName="g2896">
<g opacity="1">
<path d="M152.594+0C68.3156-2.03451e-05+0+68.3155+0+152.594C1.01725e-05+236.871+68.3156+305.188+152.594+305.188C236.871+305.188+305.188+236.871+305.188+152.594C305.187+68.3155+236.871+0+152.594+0ZM152.312+49.5C209.037+49.5+255.031+95.7242+255.031+152.781C255.031+209.838+209.037+256.094+152.312+256.094C95.5875+256.094+49.625+209.838+49.625+152.781C49.625+95.7242+95.5875+49.5+152.312+49.5Z" opacity="1" fill="#ed1c24"/>
<g opacity="1">
<path stroke="#000000" stroke-width="5.36631" d="M54.4156+72.7305C62.476+62.8385+71.9999+54.1863+82.6569+47.1039C87.155+55.1626+87.2427+54.6894+94.2056+66.2068" fill="none" stroke-linecap="butt" opacity="1" stroke-linejoin="miter"/>
<path stroke="#000000" stroke-width="5.36631" d="M271.505+109.449C263.992+82.8242+240.718+58.5981+221.03+46.4584L207.636+64.1085" fill="none" stroke-linecap="butt" opacity="1" stroke-linejoin="miter"/>
<path stroke="#000000" stroke-width="5.36631" d="M236.458+90.064C249.488+107.507+257.048+128.096+257.048+151.543C257.048+195.957+223.919+237.442+193.338+249.176C177.107+255.787+159.216+257.777+146.629+257.176C127.06+257.166+102.745+248.823+88.5749+236.758C74.4053+224.694+58.7618+205.133+54.6191+190.663L33.5846+197.02C28.441+183.231+25.9811+168.308+25.9811+152.727C25.9811+127.213+30.2924+109.115+43.2652+89.23" fill="none" stroke-linecap="butt" opacity="1" stroke-linejoin="miter"/>
<path stroke="#000000" stroke-width="5.36631" d="M49.3194+91.2339C49.3194+95.5006+45.8605+98.9595+41.5938+98.9595C37.3271+98.9595+33.8682+95.5006+33.8682+91.2339C33.8682+86.9672+37.3271+83.5083+41.5938+83.5083C45.8605+83.5083+49.3194+86.9672+49.3194+91.2339Z" fill="#ed1c24" stroke-linecap="butt" opacity="1" stroke-linejoin="miter"/>
<path stroke="#000000" stroke-width="5.36631" d="M50.8824+177.097C48.9968+169.24+47.9981+161.037+47.9981+152.6C47.9977+94.8854+95.8175+47.499+153.531+48.0017C182.629+48.2552+208.891+60.3899+227.703+79.7906" fill="none" stroke-linecap="butt" opacity="1" stroke-linejoin="miter"/>
<path stroke="#000000" stroke-width="5.36631" d="M27.0738+136.02L47.9975+139.208" fill="none" stroke-linecap="butt" opacity="1" stroke-linejoin="miter"/>
<path stroke="#000000" stroke-width="5.36631" d="M230.475+75.5635C230.475+79.8301+227.016+83.289+222.75+83.289C218.484+83.289+215.024+79.8301+215.024+75.5635C215.024+71.2968+218.484+67.8369+222.75+67.8369C227.016+67.8369+230.475+71.2968+230.475+75.5635Z" fill="#ed1c24" stroke-linecap="butt" opacity="1" stroke-linejoin="miter"/>
<path stroke="#000000" stroke-width="5.36631" d="M275.905+124.39C277.711+134.669+279.102+145.938+279.087+152.727C279.087+164.709+277.424+176.303+274.317+187.29C273.384+190.59+272.32+193.835+271.132+197.02L249.858+188.704" fill="none" stroke-linecap="butt" opacity="1" stroke-linejoin="miter"/>
<path stroke="#000000" stroke-width="5.36631" d="M276.798+104.704C276.798+108.97+273.339+112.429+269.073+112.429C264.806+112.429+261.347+108.97+261.347+104.704C261.347+100.437+264.806+96.978+269.073+96.978C273.339+96.978+276.798+100.437+276.798+104.704Z" fill="#ed1c24" stroke-linecap="butt" opacity="1" stroke-linejoin="miter"/>
<path stroke="#000000" stroke-width="5.36631" d="M57.4512+168.96C57.4512+173.227+53.9923+176.687+49.7256+176.687C45.4599+176.687+42+173.227+42+168.96C42+164.694+45.4599+161.235+49.7256+161.235C53.9923+161.235+57.4512+164.694+57.4512+168.96Z" fill="#ed1c24" stroke-linecap="butt" opacity="1" stroke-linejoin="miter"/>
</g>
<g opacity="1">
<g opacity="1">
<path d="M95.9449+53.7988L105.187+50.2505L105.144+44.7171L117.366+40.0247L120.994+44.182L130.582+40.501L106.477+15.0182L97.2351+18.5665L95.9449+53.7988ZM105.129+37.1909L105.046+25.8749L112.471+34.3721L105.129+37.1909Z" opacity="1" fill="#000000"/>
<path d="M127.857+8.65672L138.251+40.4585L147.884+39.7614L153.092+19.066L158.339+39.7282L167.973+40.4954L178.282+8.4074L168.923+7.26526L163.581+29.7191L157.959+7.30009L148.568+7.37619L143.227+29.7837L137.604+7.36476L127.857+8.65672Z" opacity="1" fill="#000000"/>
<path d="M181.587+29.3522C178.509+37.3876+182.2+44.696+190.883+48.0218C199.523+51.331+206.979+48.2914+210.056+40.2559L216.757+22.7595L207.772+19.3179L201.07+36.8144C199.714+40.3569+196.786+41.663+193.805+40.5213C190.781+39.3631+189.232+36.293+190.573+32.7937L197.274+15.2973L188.288+11.8557L181.587+29.3522Z" opacity="1" fill="#000000"/>
</g>
<g opacity="1">
<path d="M28.362+206.184L30.4498+210.281L33.92+209.952L37.4112+216.803L35.0933+219.394L37.261+223.648L49.5685+209.057L47.4807+204.96L28.362+206.184ZM37.536+209.576L44.4988+208.905L39.8406+214.099L37.536+209.576Z" opacity="1" fill="#000000"/>
<path d="M38.3834+224.902L40.7116+228.573L56.4585+218.588L54.1303+214.916L38.3834+224.902Z" opacity="1" fill="#000000"/>
<path d="M38.4625+234.215L41.0937+237.675L46.4148+233.63C45.9926+235.15+46.2994+236.716+47.364+238.117C49.6606+241.137+53.3315+241.44+56.6122+238.946C59.9529+236.406+60.6373+232.697+58.3255+229.657C57.2913+228.296+55.8947+227.622+54.3365+227.607L55.7568+226.527L53.1257+223.066L38.4625+234.215ZM50.4157+230.588C52.0561+229.341+53.9615+229.439+55.0262+230.839C56.1212+232.28+55.7062+234.142+54.0659+235.389C52.4055+236.651+50.5+236.553+49.405+235.113C48.3403+233.713+48.7353+231.866+50.4157+230.588Z" opacity="1" fill="#000000"/>
<path d="M52.8839+244.762L55.9167+247.876L60.7058+243.213C62.0381+241.916+63.7467+241.725+64.9388+242.949C65.9731+244.012+65.9021+245.344+64.7678+246.448L59.5106+251.567L62.5435+254.682L68.6649+248.721C70.9334+246.512+71.0243+243.688+68.9381+241.545C67.5176+240.123+65.837+239.549+64.0186+239.987L69.2758+234.868L66.2429+231.753L52.8839+244.762Z" opacity="1" fill="#000000"/>
<path d="M66.5273+252.831C64.9589+254.762+65.2154+257.237+67.4587+259.058C68.8827+260.215+70.3748+260.65+71.7863+260.307L70.8041+261.516L74.1007+264.194L79.6771+257.327C81.5904+254.932+81.0693+252.145+78.1823+249.801C76.4267+248.375+74.5956+247.6+72.3392+247.03L71.489+250.03C73.0604+250.367+74.4647+250.99+75.3425+251.703C76.708+252.812+76.8838+253.99+76.0442+255.024L75.9174+255.18L73.1475+252.931C70.5177+250.827+68.1432+250.841+66.5273+252.831ZM69.8775+255.163C70.5112+254.383+71.3035+254.444+72.3179+255.268L74.4441+256.994L73.6837+257.931C72.772+258.615+71.3995+258.471+70.3461+257.616C69.4098+256.855+69.2596+255.924+69.8775+255.163Z" opacity="1" fill="#000000"/>
<path d="M76.087+265.671L79.7528+268.008L80.7255+266.482C80.8552+268.055+81.6848+269.419+83.1681+270.364C86.3678+272.404+89.9168+271.418+92.1322+267.943C94.3881+264.404+93.7474+260.688+90.5266+258.635C89.0856+257.716+87.542+257.566+86.0748+258.091L89.7762+252.285L86.1104+249.948L76.087+265.671ZM83.4272+262.244C84.5349+260.507+86.3567+259.94+87.8399+260.885C89.3656+261.858+89.6204+263.749+88.5127+265.487C87.3915+267.245+85.5697+267.812+84.044+266.84C82.5608+265.894+82.2924+264.024+83.4272+262.244Z" opacity="1" fill="#000000"/>
<path d="M92.9018+268.27C91.1407+271.996+92.4586+275.676+96.4572+277.566C98.7064+278.629+100.923+278.704+102.816+277.931L101.705+274.932C100.5+275.364+99.2511+275.301+98.1832+274.796C96.7292+274.109+96.0707+272.797+96.3717+271.161L104.982+275.231C107.37+270.884+106.577+267.034+102.26+264.994C98.4663+263.201+94.6951+264.476+92.9018+268.27ZM97.3022+269.016C98.2502+267.657+99.6541+267.098+101.017+267.742C102.426+268.408+102.918+269.836+102.21+271.335L97.3022+269.016Z" opacity="1" fill="#000000"/>
<path d="M106.943+271.104L108.719+271.736L106.714+277.371C105.77+280.023+107.049+282.051+109.511+282.927C110.742+283.365+112.115+283.481+113.232+283.265L113.438+280.137C112.73+280.178+112.126+280.15+111.7+279.999C110.934+279.753+110.659+279.175+111.013+278.181L112.791+273.185L116.129+274.373L117.089+271.674L113.751+270.486L115.006+266.959L110.934+265.51L109.671+269.061L107.895+268.429L106.943+271.104Z" opacity="1" fill="#000000"/>
<path d="M121.307+268.852L124.404+287.098L128.978+287.78L134.052+276.24L135.489+288.751L140.038+289.429L148.373+272.887L143.85+272.213L138.586+284.512L137.089+271.205L132.765+270.56L127.526+282.863L126.029+269.556L121.307+268.852Z" opacity="1" fill="#000000"/>
<path d="M146.045+282.987C146.139+287.158+149.166+289.855+153.613+289.754C158.034+289.655+160.937+286.825+160.843+282.654C160.749+278.484+157.722+275.812+153.301+275.912C148.854+276.012+145.951+278.817+146.045+282.987ZM150.418+282.939C150.371+280.854+151.569+279.394+153.378+279.353C155.162+279.313+156.425+280.718+156.472+282.803C156.52+284.913+155.32+286.348+153.537+286.388C151.728+286.429+150.465+285.049+150.418+282.939Z" opacity="1" fill="#000000"/>
<path d="M163.223+289.07L167.535+288.518L166.651+281.614C166.633+279.691+168.128+278.308+170.649+278.214L170.151+274.325C168.235+274.596+166.826+275.663+166.105+277.351L165.815+275.083L161.503+275.635L163.223+289.07Z" opacity="1" fill="#000000"/>
<path d="M173.893+287.631L178.128+286.649L177.294+283.051L178.367+281.228L182.412+285.656L187.43+284.493L180.552+277.523L184.225+271.332L179.427+272.444L176.142+278.081L173.917+268.485L169.682+269.467L173.893+287.631Z" opacity="1" fill="#000000"/>
<path d="M185.03+278.115C186.425+281.993+189.961+283.659+194.123+282.163C196.464+281.321+198.082+279.804+198.872+277.918L195.964+276.587C195.419+277.744+194.492+278.585+193.381+278.985C191.868+279.529+190.474+279.068+189.528+277.7L198.49+274.477C197.099+269.717+193.813+267.56+189.32+269.175C185.371+270.595+183.61+274.166+185.03+278.115ZM188.666+275.526C188.373+273.895+188.969+272.506+190.388+271.996C191.854+271.469+193.213+272.129+193.774+273.689L188.666+275.526Z" opacity="1" fill="#000000"/>
<path d="M202.42+278.723L206.345+276.853L203.351+270.569C202.734+268.748+203.723+266.968+206.089+266.092L204.403+262.552C202.667+263.407+201.662+264.861+201.503+266.69L200.52+264.625L196.595+266.495L202.42+278.723Z" opacity="1" fill="#000000"/>
<path d="M209.948+273.24C211.994+273.49+214.208+272.939+216.155+271.788C218.967+270.125+220.284+267.565+218.865+265.164C216.481+261.085+210.799+265.496+209.852+263.896C209.532+263.355+209.855+262.814+210.525+262.417C211.499+261.842+213.039+261.485+214.893+261.411L214.737+258.233C212.81+258.234+210.842+258.756+209.154+259.754C206.451+261.353+205.185+263.853+206.605+266.254C209.001+270.355+214.511+265.899+215.522+267.608C215.842+268.149+215.454+268.728+214.719+269.163C213.421+269.93+211.6+270.307+209.731+270.157L209.948+273.24Z" opacity="1" fill="#000000"/>
<path d="M223.54+259.666C226.519+263.235+230.834+263.464+234.634+260.292C238.416+257.136+238.905+252.898+235.927+249.329L229.39+241.496L225.975+244.345L232.512+252.179C234.041+254.012+233.875+256.048+232.255+257.401C230.615+258.77+228.504+258.633+226.974+256.8L220.438+248.966L217.003+251.832L223.54+259.666Z" opacity="1" fill="#000000"/>
<path d="M242.04+251.816L244.989+248.622L239.727+243.764C238.665+242.544+238.516+241.038+239.59+239.875C240.578+238.804+241.929+238.786+243.092+239.86L248.484+244.837L251.416+241.661L245.138+235.866C242.811+233.718+239.986+233.777+237.958+235.974C236.613+237.469+236.147+239.159+236.662+240.934L235.037+239.434L232.088+242.629L242.04+251.816Z" opacity="1" fill="#000000"/>
<path d="M239.05+228.988C240.12+229.822+241.46+229.655+242.279+228.604C243.097+227.553+242.93+226.213+241.86+225.38C240.809+224.561+239.469+224.728+238.651+225.779C237.832+226.829+237.999+228.169+239.05+228.988ZM252.87+239.625L255.526+236.214L244.84+227.892L242.184+231.302L252.87+239.625Z" opacity="1" fill="#000000"/>
<path d="M251.342+230.781C254.834+233.063+258.77+232.093+261.203+228.37C263.623+224.668+262.931+220.673+259.439+218.391C255.947+216.109+252.032+217.093+249.613+220.795C247.179+224.518+247.85+228.499+251.342+230.781ZM253.776+227.148C252.03+226.007+251.505+224.193+252.494+222.678C253.471+221.185+255.343+220.938+257.089+222.079C258.856+223.234+259.36+225.034+258.384+226.528C257.394+228.042+255.543+228.303+253.776+227.148Z" opacity="1" fill="#000000"/>
<path d="M266.207+220.129L268.159+216.245L261.76+213.028C260.402+212.149+259.843+210.743+260.554+209.328C261.208+208.026+262.502+207.636+263.916+208.346L270.472+211.642L272.413+207.78L264.779+203.943C261.95+202.521+259.251+203.358+257.908+206.03C257.028+207.838+257.047+209.591+258.033+211.155L256.057+210.162L254.104+214.046L266.207+220.129Z" opacity="1" fill="#000000"/>
</g>
</g>
</g>
</g>
</svg>
