<?xml version="1.0" encoding="utf-8"?>
<!-- Generator: Adobe Illustrator 27.5.0, SVG Export Plug-In . SVG Version: 6.00 Build 0)  -->
<svg version="1.1" id="Layer_1" xmlns:vectornator="http://vectornator.io"
	 xmlns="http://www.w3.org/2000/svg" xmlns:xlink="http://www.w3.org/1999/xlink" x="0px" y="0px" viewBox="0 0 250 250"
	 style="enable-background:new 0 0 250 250;" xml:space="preserve">
<style type="text/css">
	.st0{fill:#ED1C24;}
	.st1{fill:none;}
	.st2{fill:#FFFFFF;}
	.st3{font-family:'Mono45Headline-Regular';}
	.st4{font-size:36.4px;}
	.st5{font-size:36px;}
	.st6{fill:#FF8D00;}
	.st7{fill:#FFEE00;}
	.st8{fill:#028121;}
	.st9{fill:#004CFF;}
	.st10{fill:#760088;}
	.st11{fill:#73D7EE;}
	.st12{fill:#FFAFC7;}
	.st13{fill:#613915;}
	.st14{fill:none;stroke:#FFFFFF;stroke-width:5;stroke-miterlimit:3.2767;}
</style>
<g id="g2896" vectornator:layerName="g2896">
	<path class="st0" d="M125,0C56,0,0,56,0,125c0,69,56,125,125,125c69,0,125-56,125-125C250,56,194,0,125,0z M124.8,40.5
		c46.5,0,84.1,37.9,84.1,84.6c0,46.7-37.7,84.6-84.1,84.6c-46.5,0-84.1-37.9-84.1-84.6C40.7,78.4,78.3,40.5,124.8,40.5z"/>
</g>
<circle class="st1" cx="125" cy="125" r="91"/>
<text transform="matrix(0.9856 -0.1693 0.1693 0.9856 101.5952 36.6729)"><tspan x="0" y="0" class="st2 st3 st4">A</tspan><tspan x="15.7" y="-0.2" class="st2 st3 st4" rotate="10.7">W</tspan><tspan x="31.2" y="2.6" class="st2 st3 st4" rotate="19.6">U</tspan></text>
<circle class="st1" cx="125" cy="125" r="116.5"/>
<text transform="matrix(0.8646 0.5024 -0.5024 0.8646 59.707 221.8213)"><tspan x="0" y="0" class="st2 st3 st5">C</tspan><tspan x="17.4" y="-0.1" class="st2 st3 st5" rotate="-8.6">W</tspan><tspan x="34.7" y="-2.9" class="st2 st3 st5" rotate="-17.3">A</tspan><tspan x="51.3" y="-8.1" class="st2 st3 st5" rotate="-25.8"> </tspan><tspan x="66.9" y="-15.8" class="st2 st3 st5" rotate="-34.2">9</tspan><tspan x="81.3" y="-25.7" class="st2 st3 st5" rotate="-42.8">0</tspan><tspan x="94" y="-37.7" class="st2 st3 st5" rotate="-51.4">0</tspan><tspan x="104.8" y="-51.4" class="st2 st3 st5" rotate="-60.1">9</tspan></text>
<path class="st6" d="M245.2,90.5h-44c-1.5-3.4-3.3-6.7-5.2-9.9h46C243.1,83.9,244.2,87.2,245.2,90.5z"/>
<path class="st7" d="M247.6,100.4h-42.7c-1-3.4-2.3-6.7-3.7-9.8h44C246.1,93.8,246.9,97,247.6,100.4z"/>
<path class="st8" d="M249.1,110.2h-41.9c-0.6-3.4-1.4-6.6-2.4-9.8h42.7C248.2,103.6,248.7,106.9,249.1,110.2z"/>
<path class="st9" d="M249.9,120.1h-41.6c-0.2-3.3-0.6-6.6-1.1-9.9h41.9C249.5,113.5,249.8,116.8,249.9,120.1z"/>
<path class="st10" d="M250,125c0,1.7,0,3.3-0.1,4.9h-41.6c0.1-1.6,0.2-3.3,0.2-4.9s0-3.3-0.2-4.9h41.6C250,121.7,250,123.3,250,125z
	"/>
<path class="st11" d="M249.9,129.9c-0.1,3.3-0.4,6.6-0.8,9.9h-41.9c0.6-3.2,1-6.5,1.1-9.9H249.9z"/>
<path class="st12" d="M249.1,139.8c-0.4,3.3-0.9,6.6-1.6,9.8h-42.7c1-3.2,1.8-6.5,2.4-9.8H249.1z"/>
<path class="st13" d="M247.6,149.6c-0.7,3.3-1.5,6.6-2.4,9.8h-44c1.4-3.2,2.7-6.5,3.7-9.8H247.6z"/>
<path d="M245.2,159.5c-1,3.4-2,6.6-3.3,9.9h-46c2-3.2,3.7-6.4,5.2-9.9H245.2z"/>
<path class="st1" d="M179.4,169.3H197c-14.9,24.1-41.5,40.2-72,40.2c-46.7,0-84.5-37.8-84.5-84.5S78.3,40.5,125,40.5
	c30.4,0,57.1,16.1,72,40.2h-17.5V169.3z"/>
<path class="st1" d="M250,125c0,1.7,0,3.3-0.1,4.9c-0.1,3.3-0.4,6.6-0.8,9.9c-0.4,3.3-0.9,6.6-1.6,9.8c-0.7,3.3-1.5,6.6-2.4,9.8
	c-1,3.4-2,6.6-3.3,9.9C224,216.5,178.4,250,125,250C56,250,0,194,0,125S56,0,125,0c53.4,0,99,33.5,116.9,80.7
	c1.2,3.2,2.3,6.5,3.3,9.9c0.9,3.2,1.7,6.5,2.4,9.8c0.6,3.2,1.2,6.5,1.6,9.8c0.4,3.2,0.7,6.5,0.8,9.9C250,121.7,250,123.3,250,125z"
	/>
<path class="st2" d="M61.8,33.3c-1.6-0.9-3.4-1.5-5.2-1.9s-3.7-0.5-5.6-0.3c-1.8,0.2-3.6,0.6-5.3,1.3c-4.7,1.9-8.4,5.5-10.3,10.2
	c-0.5,1.2-0.9,2.3-1.1,3.6c-0.4,1.8-0.5,3.7-0.3,5.5s0.6,3.6,1.3,5.4c2.7,6.8,9,11.1,15.8,11.7c0.6,0.1,1.2,0.1,1.8,0.1
	c1.3,0,2.6-0.1,3.9-0.4c1.1-0.2,2.2-0.5,3.2-1c1.2-0.5,2.4-1.1,3.5-1.9c0.1,0,0.1-0.1,0.2-0.1l0.1,0.1L82,83.8
	c1.6,1.6,4.2,1.6,5.8,0l0,0c1.6-1.6,1.6-4.2,0-5.8l0,0L69.4,59.8c-0.1-0.1-0.2-0.2-0.3-0.3c0.4-0.7,0.8-1.4,1.1-2.2
	c0.8-1.8,1.2-3.7,1.4-5.7c0.2-1.8,0.1-3.7-0.3-5.5c-0.2-1.1-0.6-2.2-1-3.3C68.5,38.6,65.5,35.4,61.8,33.3 M57.7,62.4
	c-0.2,0.1-0.3,0.1-0.5,0.2c-1.9,0.7-3.8,0.9-5.6,0.8c-4.9-0.4-9.4-3.5-11.3-8.3c-0.4-1.1-0.7-2.2-0.9-3.3c-0.2-1.9-0.1-3.7,0.5-5.5
	c0.1-0.5,0.3-0.9,0.5-1.4c1.4-3.3,4-5.8,7.3-7.2c1.3-0.5,2.6-0.8,3.9-0.9c0.4,0,0.7,0,1.1,0c1.6,0,3.1,0.3,4.5,0.8
	c3.5,1.2,6.4,3.9,7.9,7.6c0.2,0.4,0.3,0.8,0.4,1.2c0.5,1.8,0.7,3.7,0.5,5.5c-0.2,1.2-0.5,2.4-1,3.5C63.6,58.5,61,61,57.7,62.4
	L57.7,62.4z"/>
<path class="st2" d="M49.2,182.8c-0.1-0.4-0.2-0.9-0.4-1.3c-1.1-2.6-3.1-4.6-5.6-5.7c-0.5-0.2-1-0.4-1.5-0.5c-1.7-0.4-3.5-0.4-5.2,0
	c-0.4,0.1-0.9,0.2-1.3,0.4c-2.6,1.1-4.6,3.1-5.7,5.6c-0.2,0.5-0.4,1-0.5,1.5c-0.4,1.7-0.5,3.5,0,5.2c0.1,0.4,0.2,0.9,0.4,1.3
	c1.1,2.6,3.1,4.6,5.6,5.7c0.5,0.2,0.9,0.3,1.4,0.5c0.9,0.2,1.8,0.4,2.7,0.4s1.7-0.1,2.6-0.3c0.5-0.1,0.9-0.3,1.4-0.4
	c2.6-1.1,4.6-3.1,5.7-5.6c0.2-0.5,0.4-1,0.5-1.5C49.6,186.3,49.6,184.5,49.2,182.8L49.2,182.8z M41.6,190c-0.2,0.1-0.4,0.2-0.6,0.3
	c-1.3,0.5-2.7,0.5-4,0c-0.2-0.1-0.4-0.2-0.6-0.3c-0.8-0.5-1.4-1.1-1.9-1.9c-0.1-0.2-0.2-0.4-0.3-0.6c-0.5-1.3-0.5-2.7,0-4
	c0.1-0.2,0.2-0.4,0.3-0.6c0.5-0.8,1.1-1.5,1.9-1.9c0.2-0.1,0.5-0.2,0.7-0.3c0.6-0.3,1.3-0.4,2-0.4s1.4,0.1,2.1,0.4
	c0.2,0.1,0.3,0.2,0.5,0.3c0.8,0.5,1.5,1.1,2,2c0.1,0.2,0.2,0.4,0.3,0.6c0.5,1.3,0.5,2.7,0,4c-0.1,0.2-0.2,0.4-0.3,0.6
	C43.1,188.9,42.4,189.5,41.6,190L41.6,190z"/>
<path class="st14" d="M34,177.4C25.1,162,20,144.1,20,125c0-23.4,7.7-45.1,20.7-62.5"/>
</svg>
