<?xml version="1.0" encoding="utf-8"?>
<!-- Generator: Adobe Illustrator 27.5.0, SVG Export Plug-In . SVG Version: 6.00 Build 0)  -->
<svg version="1.1" id="Layer_1" xmlns:vectornator="http://vectornator.io"
	 xmlns="http://www.w3.org/2000/svg" xmlns:xlink="http://www.w3.org/1999/xlink" x="0px" y="0px" viewBox="0 0 250 250"
	 style="enable-background:new 0 0 250 250;" xml:space="preserve">
<style type="text/css">
	.st0{fill:#ED1C24;}
	.st1{fill:none;}
	.st2{fill:#FFFFFF;}
	.st3{font-family:'Mono45Headline-Regular';}
	.st4{font-size:36.4px;}
	.st5{font-size:36px;}
	.st6{fill:none;stroke:#FFFFFF;stroke-width:5;stroke-miterlimit:3.2767;}
</style>
<g id="g2896" vectornator:layerName="g2896">
	<path class="st0" d="M125,0C56,0,0,56,0,125c0,69,56,125,125,125c69,0,125-56,125-125C250,56,194,0,125,0z M124.8,40.5
		c46.5,0,84.1,37.9,84.1,84.6c0,46.7-37.7,84.6-84.1,84.6c-46.5,0-84.1-37.9-84.1-84.6C40.7,78.4,78.3,40.5,124.8,40.5z"/>
</g>
<circle class="st1" cx="125" cy="125" r="91"/>
<text transform="matrix(0.9856 -0.1693 0.1693 0.9856 101.5952 36.6729)"><tspan x="0" y="0" class="st2 st3 st4">A</tspan><tspan x="15.7" y="-0.2" class="st2 st3 st4" rotate="10.7">W</tspan><tspan x="31.2" y="2.6" class="st2 st3 st4" rotate="19.6">U</tspan></text>
<circle class="st1" cx="125" cy="125" r="116.5"/>
<text transform="matrix(0.8646 0.5024 -0.5024 0.8646 59.707 221.8213)"><tspan x="0" y="0" class="st2 st3 st5">C</tspan><tspan x="17.4" y="-0.1" class="st2 st3 st5" rotate="-8.6">W</tspan><tspan x="34.7" y="-2.9" class="st2 st3 st5" rotate="-17.3">A</tspan><tspan x="51.3" y="-8.1" class="st2 st3 st5" rotate="-25.8"> </tspan><tspan x="66.9" y="-15.8" class="st2 st3 st5" rotate="-34.2">9</tspan><tspan x="81.3" y="-25.7" class="st2 st3 st5" rotate="-42.8">0</tspan><tspan x="94" y="-37.7" class="st2 st3 st5" rotate="-51.4">0</tspan><tspan x="104.8" y="-51.4" class="st2 st3 st5" rotate="-60.1">9</tspan></text>
<path class="st2" d="M61.8,33.3c-1.6-0.9-3.4-1.5-5.2-1.9c-1.8-0.4-3.7-0.5-5.6-0.3c-1.8,0.2-3.6,0.6-5.3,1.3
	c-4.7,1.9-8.4,5.5-10.3,10.2c-0.5,1.2-0.9,2.3-1.1,3.6c-0.4,1.8-0.5,3.7-0.3,5.5c0.2,1.8,0.6,3.6,1.3,5.4c2.7,6.8,9,11.1,15.8,11.7
	c0.6,0.1,1.2,0.1,1.8,0.1c1.3,0,2.6-0.1,3.9-0.4c1.1-0.2,2.2-0.5,3.2-1c1.2-0.5,2.4-1.1,3.5-1.9c0.1,0,0.1-0.1,0.2-0.1
	c0,0,0.1,0.1,0.1,0.1l18.2,18.2c1.6,1.6,4.2,1.6,5.8,0l0,0c1.6-1.6,1.6-4.2,0-5.8l0,0L69.4,59.8c-0.1-0.1-0.2-0.2-0.3-0.3
	c0.4-0.7,0.8-1.4,1.1-2.2c0.8-1.8,1.2-3.7,1.4-5.7c0.2-1.8,0.1-3.7-0.3-5.5c-0.2-1.1-0.6-2.2-1-3.3C68.5,38.6,65.5,35.4,61.8,33.3
	 M57.7,62.4c-0.2,0.1-0.3,0.1-0.5,0.2c-1.9,0.7-3.8,0.9-5.6,0.8c-4.9-0.4-9.4-3.5-11.3-8.3c-0.4-1.1-0.7-2.2-0.9-3.3
	c-0.2-1.9-0.1-3.7,0.5-5.5c0.1-0.5,0.3-0.9,0.5-1.4c1.4-3.3,4-5.8,7.3-7.2c1.3-0.5,2.6-0.8,3.9-0.9c0.4,0,0.7,0,1.1,0
	c1.6,0,3.1,0.3,4.5,0.8c3.5,1.2,6.4,3.9,7.9,7.6c0.2,0.4,0.3,0.8,0.4,1.2c0.5,1.8,0.7,3.7,0.5,5.5c-0.2,1.2-0.5,2.4-1,3.5
	C63.6,58.5,61,61,57.7,62.4L57.7,62.4z"/>
<path class="st2" d="M223.6,184.3c-0.1-1.3-0.4-2.6-0.9-3.9c-1.4-3.3-3.9-6-7.2-7.4c-1.6-0.7-3.2-1-4.8-1.1
	c-1.8-0.1-3.6,0.2-5.3,0.9c-0.1,0-0.1,0.1-0.2,0.1c-4.9,2-8,6.5-8.4,11.4c-0.2,1.8,0,3.6,0.6,5.4c0.1,0.3,0.2,0.6,0.3,0.8
	c1.4,3.3,3.9,6,7.2,7.4c1.7,0.7,3.5,1.1,5.3,1.1c0.6,0,1.2,0,1.7-0.1c1.1-0.1,2.3-0.4,3.3-0.9c0.6-0.2,1.1-0.5,1.6-0.8
	c2.6-1.5,4.6-3.7,5.8-6.4c0.1-0.3,0.3-0.7,0.4-1.1C223.5,187.9,223.7,186.1,223.6,184.3L223.6,184.3z M217.6,188.6
	c-0.2,0.4-0.3,0.7-0.5,1c-0.6,1-1.4,1.8-2.3,2.5c-0.5,0.3-1,0.6-1.6,0.9c-1.1,0.5-2.3,0.6-3.5,0.6c-0.9,0-1.9-0.3-2.8-0.6
	c-1.6-0.7-2.9-1.8-3.8-3.3c-0.2-0.4-0.4-0.8-0.6-1.2c-0.6-1.4-0.7-2.8-0.5-4.2c0.3-2.4,1.7-4.6,3.9-5.8c0.3-0.2,0.7-0.4,1.1-0.6
	c1-0.4,2-0.6,3.1-0.6c0.4,0,0.7,0,1.1,0.1c0.7,0.1,1.4,0.3,2.1,0.6c2,0.8,3.6,2.4,4.4,4.4c0.3,0.6,0.4,1.3,0.5,1.9
	C218.4,185.7,218.2,187.2,217.6,188.6L217.6,188.6z"/>
<path class="st2" d="M208.6,47.3c-0.1-0.4-0.2-0.9-0.4-1.3c-1.1-2.6-3.1-4.6-5.6-5.7c-0.5-0.2-1-0.4-1.5-0.5c-1.7-0.4-3.5-0.4-5.2,0
	c-0.4,0.1-0.9,0.2-1.3,0.4c-2.6,1.1-4.6,3.1-5.7,5.6c-0.2,0.5-0.4,1-0.5,1.5c-0.4,1.7-0.5,3.5,0,5.2c0.1,0.4,0.2,0.9,0.4,1.3
	c1.1,2.6,3.1,4.6,5.6,5.7c0.5,0.2,0.9,0.3,1.4,0.5c0.9,0.2,1.8,0.4,2.7,0.4c0.9,0,1.7-0.1,2.6-0.3c0.5-0.1,0.9-0.3,1.4-0.4
	c2.6-1.1,4.6-3.1,5.7-5.6c0.2-0.5,0.4-1,0.5-1.5C209,50.8,209,49,208.6,47.3L208.6,47.3z M201,54.5c-0.2,0.1-0.4,0.2-0.6,0.3
	c-1.3,0.5-2.7,0.5-4,0c-0.2-0.1-0.4-0.2-0.6-0.3c-0.8-0.5-1.4-1.1-1.9-1.9c-0.1-0.2-0.2-0.4-0.3-0.6c-0.5-1.3-0.5-2.7,0-4
	c0.1-0.2,0.2-0.4,0.3-0.6c0.5-0.8,1.1-1.5,1.9-1.9c0.2-0.1,0.5-0.2,0.7-0.3c0.6-0.3,1.3-0.4,2-0.4s1.4,0.1,2.1,0.4
	c0.2,0.1,0.3,0.2,0.5,0.3c0.8,0.5,1.5,1.1,2,2c0.1,0.2,0.2,0.4,0.3,0.6c0.5,1.3,0.5,2.7,0,4c-0.1,0.2-0.2,0.4-0.3,0.6
	C202.5,53.4,201.8,54.1,201,54.5L201,54.5z"/>
<path class="st2" d="M49.2,182.8c-0.1-0.4-0.2-0.9-0.4-1.3c-1.1-2.6-3.1-4.6-5.6-5.7c-0.5-0.2-1-0.4-1.5-0.5c-1.7-0.4-3.5-0.4-5.2,0
	c-0.4,0.1-0.9,0.2-1.3,0.4c-2.6,1.1-4.6,3.1-5.7,5.6c-0.2,0.5-0.4,1-0.5,1.5c-0.4,1.7-0.5,3.5,0,5.2c0.1,0.4,0.2,0.9,0.4,1.3
	c1.1,2.6,3.1,4.6,5.6,5.7c0.5,0.2,0.9,0.3,1.4,0.5c0.9,0.2,1.8,0.4,2.7,0.4c0.9,0,1.7-0.1,2.6-0.3c0.5-0.1,0.9-0.3,1.4-0.4
	c2.6-1.1,4.6-3.1,5.7-5.6c0.2-0.5,0.4-1,0.5-1.5C49.6,186.3,49.6,184.5,49.2,182.8L49.2,182.8z M41.6,190c-0.2,0.1-0.4,0.2-0.6,0.3
	c-1.3,0.5-2.7,0.5-4,0c-0.2-0.1-0.4-0.2-0.6-0.3c-0.8-0.5-1.4-1.1-1.9-1.9c-0.1-0.2-0.2-0.4-0.3-0.6c-0.5-1.3-0.5-2.7,0-4
	c0.1-0.2,0.2-0.4,0.3-0.6c0.5-0.8,1.1-1.5,1.9-1.9c0.2-0.1,0.5-0.2,0.7-0.3c0.6-0.3,1.3-0.4,2-0.4s1.4,0.1,2.1,0.4
	c0.2,0.1,0.3,0.2,0.5,0.3c0.8,0.5,1.5,1.1,2,2c0.1,0.2,0.2,0.4,0.3,0.6c0.5,1.3,0.5,2.7,0,4c-0.1,0.2-0.2,0.4-0.3,0.6
	C43.1,188.9,42.4,189.5,41.6,190L41.6,190z"/>
<path class="st6" d="M34,177.4C25.1,162,20,144.1,20,125c0-23.4,7.7-45.1,20.7-62.5"/>
<path class="st6" d="M203.6,55.3C220,73.9,230,98.3,230,125c0,18.5-4.8,36-13.2,51.1"/>
</svg>
