<?xml version="1.0" encoding="utf-8"?>
<!-- Generator: Adobe Illustrator 27.5.0, SVG Export Plug-In . SVG Version: 6.00 Build 0)  -->
<svg version="1.1" id="Layer_1" xmlns:vectornator="http://vectornator.io"
	 xmlns="http://www.w3.org/2000/svg" xmlns:xlink="http://www.w3.org/1999/xlink" x="0px" y="0px" viewBox="0 0 250 250"
	 style="enable-background:new 0 0 250 250;" xml:space="preserve">
<style type="text/css">
	.st0{fill:#ED1C24;}
	.st1{fill:none;}
	.st2{enable-background:new    ;}
	.st3{fill:#FFFFFF;}
	.st4{font-family:'Mono45Headline-Regular';}
	.st5{font-size:35.9989px;}
	.st6{fill:none;stroke:#FFFFFF;stroke-width:5;stroke-miterlimit:3.2767;}
	.st7{fill:#5BCEFA;}
	.st8{fill:#F5A9B8;}
</style>
<g id="g2896" vectornator:layerName="g2896">
	<path class="st0" d="M125,0C56,0,0,56,0,125s56,125,125,125s125-56,125-125S194,0,125,0z M124.8,40.5c46.5,0,84.1,37.9,84.1,84.6
		s-37.7,84.6-84.1,84.6c-46.5,0-84.1-37.9-84.1-84.6C40.7,78.4,78.3,40.5,124.8,40.5z"/>
</g>
<circle class="st1" cx="125" cy="125" r="91"/>
<g class="st2">
	<path class="st3" d="M102.5,36.5l-0.4-25.3l6.3-1.1l8,24l-3.8,0.6l-1.5-4.7l-5,0.9l0.1,5L102.5,36.5z M110,26.6l-4.1-12.5l0.3,13.1
		L110,26.6z"/>
</g>
<g class="st2">
	<path class="st3" d="M118.1,8.8l3.9,0.1l0.7,14l2.7-10.3l2.3,10.4L129,9l3.9,0.1l-2.2,25l-3.7-0.1l-1.7-9.9l-2,9.9l-3.7-0.1
		L118.1,8.8z"/>
</g>
<g class="st2">
	<path class="st3" d="M135.3,27.4l3.1-17.9l3.8,0.7L139.1,28c-0.2,1-0.5,3.5,2.1,4c2.7,0.5,3.2-2,3.4-3l3.1-17.9l3.8,0.7l-3.1,17.9
		c-0.7,4.2-3.4,6.9-7.9,6.1C136.1,35,134.5,31.7,135.3,27.4z"/>
</g>
<circle class="st1" cx="125" cy="125" r="116.5"/>
<g class="st2">
	<path class="st3" d="M79.2,204c4.6,2.7,3.8,6.7,2.1,9.6l-0.5,0.9l-3.2-1.9l0.5-0.9c0.5-0.9,1.8-3.1-0.7-4.6s-3.8,0.8-4.3,1.7
		l-5.6,9.6c-0.5,0.9-1.8,3.1,0.7,4.6s3.8-0.8,4.3-1.7l0.6-1l3.2,1.9l-0.6,1c-2.1,3.7-5.5,5.2-9.4,3c-4.6-2.7-3.7-6.8-2.1-9.6
		l5.6-9.6C72,203.3,75.4,201.7,79.2,204z"/>
</g>
<g class="st2">
	<path class="st3" d="M84.5,207.7l3.5,1.4l-4.2,13.2l6.1-8.6l-1.4,10.4l6-12.5L98,213l-10.7,22.4l-3.4-1.3l1.9-9.8l-5.3,8.4
		l-3.4-1.3L84.5,207.7z"/>
</g>
<g class="st2">
	<path class="st3" d="M92.1,237l9.2-23.3l6.2,1.4l-1.8,25l-3.7-0.8l0.4-4.9l-4.8-1.1l-1.8,4.6L92.1,237z M102.6,230.8l1-13
		l-4.7,12.1L102.6,230.8z"/>
</g>
<text transform="matrix(0.9971 7.602187e-02 -7.602187e-02 0.9971 108.13 240.5914)" class="st3 st4 st5"> </text>
<g class="st2">
	<path class="st3" d="M126.3,235.3l0-0.4l3.6-0.3l0,0.2c0.1,1.5,0.5,3.5,3.1,3.4c2.4-0.2,2.8-2,2.6-4l-0.3-3.9
		c-0.3,0.3-1.3,1.4-3.2,1.5c-4.7,0.3-6.6-3-6.9-7.3c-0.2-3.2,0.7-7.9,6.1-8.3c5.4-0.4,7,4.1,7.2,7.4l0.7,10.4c0.3,4-1.1,7.5-6.1,7.8
		C128.4,242,126.6,239.2,126.3,235.3z M129,224.1c0.2,3.1,1.4,4.1,3.2,4c1.8-0.1,2.8-1.3,2.6-4.4s-1.4-4.1-3.2-4
		C129.9,219.8,128.8,221,129,224.1z"/>
</g>
<g class="st2">
	<path class="st3" d="M153.2,219.8l2.4,10.8c0.9,4.2-0.5,7.6-4.9,8.6c-4.4,1-7.1-1.5-8.1-5.7l-2.4-10.8c-0.9-4.2,0.5-7.6,4.9-8.6
		C149.5,213.1,152.2,215.6,153.2,219.8z M143.8,221.9l1.4,6.5l4.1-8.8c-0.3-1.1-1.4-2.4-3.5-2C143.1,218.2,143.6,220.9,143.8,221.9z
		 M152.1,231.4l-1.4-6.4l-4.1,8.7c0.3,1.1,1.3,2.4,3.4,2C152.8,235,152.3,232.4,152.1,231.4z"/>
</g>
<g class="st2">
	<path class="st3" d="M167,214.5l4,10.3c1.6,4,0.6,7.6-3.5,9.2c-4.2,1.6-7.3-0.4-8.8-4.4l-4-10.3c-1.6-4-0.6-7.6,3.5-9.2
		S165.4,210.5,167,214.5z M158,218l2.4,6.2l2.8-9.3c-0.4-1.1-1.7-2.2-3.7-1.4C156.7,214.5,157.6,217,158,218z M167.6,226.1l-2.4-6.1
		l-2.7,9.3c0.4,1.1,1.7,2.2,3.7,1.4C168.9,229.6,168,227.1,167.6,226.1z"/>
</g>
<g class="st2">
	<path class="st3" d="M174,223.8l-0.2-0.3l3.1-1.8l0.1,0.2c0.8,1.3,2,3,4.3,1.7c2.1-1.2,1.6-3,0.6-4.8l-2-3.4
		c-0.1,0.4-0.6,1.8-2.2,2.7c-4.1,2.3-7.2,0.2-9.4-3.6c-1.6-2.8-2.8-7.4,1.9-10.1s8.1,0.7,9.7,3.5l5.2,9.1c2,3.5,2.3,7.2-2.1,9.7
		C178.9,229,176,227.3,174,223.8z M171.6,212.6c1.6,2.7,3.1,3.1,4.6,2.2s2-2.4,0.4-5.1c-1.6-2.7-3.1-3.1-4.6-2.2
		S170,209.9,171.6,212.6z"/>
</g>
<path class="st3" d="M61.8,33.3c-1.6-0.9-3.4-1.5-5.2-1.9s-3.7-0.5-5.6-0.3c-1.8,0.2-3.6,0.6-5.3,1.3c-4.7,1.9-8.4,5.5-10.3,10.2
	c-0.5,1.2-0.9,2.3-1.1,3.6c-0.4,1.8-0.5,3.7-0.3,5.5s0.6,3.6,1.3,5.4c2.7,6.8,9,11.1,15.8,11.7c0.6,0.1,1.2,0.1,1.8,0.1
	c1.3,0,2.6-0.1,3.9-0.4c1.1-0.2,2.2-0.5,3.2-1c1.2-0.5,2.4-1.1,3.5-1.9c0.1,0,0.1-0.1,0.2-0.1l0.1,0.1L82,83.8
	c1.6,1.6,4.2,1.6,5.8,0l0,0c1.6-1.6,1.6-4.2,0-5.8l0,0L69.4,59.8c-0.1-0.1-0.2-0.2-0.3-0.3c0.4-0.7,0.8-1.4,1.1-2.2
	c0.8-1.8,1.2-3.7,1.4-5.7c0.2-1.8,0.1-3.7-0.3-5.5c-0.2-1.1-0.6-2.2-1-3.3C68.5,38.6,65.5,35.4,61.8,33.3 M57.7,62.4
	c-0.2,0.1-0.3,0.1-0.5,0.2c-1.9,0.7-3.8,0.9-5.6,0.8c-4.9-0.4-9.4-3.5-11.3-8.3c-0.4-1.1-0.7-2.2-0.9-3.3c-0.2-1.9-0.1-3.7,0.5-5.5
	c0.1-0.5,0.3-0.9,0.5-1.4c1.4-3.3,4-5.8,7.3-7.2c1.3-0.5,2.6-0.8,3.9-0.9c0.4,0,0.7,0,1.1,0c1.6,0,3.1,0.3,4.5,0.8
	c3.5,1.2,6.4,3.9,7.9,7.6c0.2,0.4,0.3,0.8,0.4,1.2c0.5,1.8,0.7,3.7,0.5,5.5c-0.2,1.2-0.5,2.4-1,3.5C63.6,58.5,61,61,57.7,62.4
	L57.7,62.4z"/>
<path class="st3" d="M49.2,182.8c-0.1-0.4-0.2-0.9-0.4-1.3c-1.1-2.6-3.1-4.6-5.6-5.7c-0.5-0.2-1-0.4-1.5-0.5c-1.7-0.4-3.5-0.4-5.2,0
	c-0.4,0.1-0.9,0.2-1.3,0.4c-2.6,1.1-4.6,3.1-5.7,5.6c-0.2,0.5-0.4,1-0.5,1.5c-0.4,1.7-0.5,3.5,0,5.2c0.1,0.4,0.2,0.9,0.4,1.3
	c1.1,2.6,3.1,4.6,5.6,5.7c0.5,0.2,0.9,0.3,1.4,0.5c0.9,0.2,1.8,0.4,2.7,0.4s1.7-0.1,2.6-0.3c0.5-0.1,0.9-0.3,1.4-0.4
	c2.6-1.1,4.6-3.1,5.7-5.6c0.2-0.5,0.4-1,0.5-1.5C49.6,186.3,49.6,184.5,49.2,182.8L49.2,182.8z M41.6,190c-0.2,0.1-0.4,0.2-0.6,0.3
	c-1.3,0.5-2.7,0.5-4,0c-0.2-0.1-0.4-0.2-0.6-0.3c-0.8-0.5-1.4-1.1-1.9-1.9c-0.1-0.2-0.2-0.4-0.3-0.6c-0.5-1.3-0.5-2.7,0-4
	c0.1-0.2,0.2-0.4,0.3-0.6c0.5-0.8,1.1-1.5,1.9-1.9c0.2-0.1,0.5-0.2,0.7-0.3c0.6-0.3,1.3-0.4,2-0.4s1.4,0.1,2.1,0.4
	c0.2,0.1,0.3,0.2,0.5,0.3c0.8,0.5,1.5,1.1,2,2c0.1,0.2,0.2,0.4,0.3,0.6c0.5,1.3,0.5,2.7,0,4c-0.1,0.2-0.2,0.4-0.3,0.6
	C43.1,188.9,42.4,189.5,41.6,190L41.6,190z"/>
<path class="st6" d="M34,177.4C25.1,162,20,144.1,20,125c0-23.4,7.7-45.1,20.7-62.5"/>
<path class="st7" d="M245.8,92.8h-43.7c-3.1-7.5-7.2-14.4-12.2-20.6h48.3C241.4,78.8,243.9,85.7,245.8,92.8z"/>
<path class="st8" d="M249.5,113.4h-41.8c-1-7.2-2.9-14.1-5.6-20.6h43.7C247.6,99.5,248.8,106.4,249.5,113.4z"/>
<path class="st3" d="M249.7,134c0.2-3,0.3-6,0.3-9c0-3.9-0.2-7.8-0.5-11.6h-41.8c0.5,3.8,0.8,7.7,0.8,11.6c0,3-0.2,6-0.5,9l0,0
	H249.7L249.7,134z"/>
<path class="st8" d="M249.7,134H208l0,0c-0.8,7.2-2.4,14.1-4.8,20.6h43.3C248.1,147.9,249.2,141,249.7,134L249.7,134z"/>
<path class="st7" d="M246.5,154.6c-1.7,7.1-4.1,14-6.9,20.6H192c4.6-6.3,8.4-13.2,11.2-20.6H246.5z"/>
<path class="st1" d="M153.7,134v20.6h49.5l0,0h-49.5v20.6H192c-15.4,20.8-40.1,34.3-68,34.3c-46.7,0-84.5-37.8-84.5-84.5
	S77.3,40.5,124,40.5c26.7,0,50.5,12.4,66,31.7h-36.3V134h54.4l0,0H153.7z"/>
<path class="st1" d="M246.5,154.6c-1.7,7.1-4.1,14-6.9,20.6H192c4.6-6.3,8.4-13.2,11.2-20.6H246.5z"/>
<path class="st1" d="M208,134c-0.8,7.2-2.4,14.1-4.8,20.6h43.3c1.6-6.7,2.7-13.5,3.2-20.6l0,0c0.2-3,0.3-6,0.3-9
	c0-3.9-0.2-7.8-0.5-11.6c-0.6-7.1-1.9-13.9-3.6-20.6c-1.9-7.1-4.4-14-7.5-20.6H190c5,6.2,9.1,13.1,12.2,20.6
	c2.7,6.5,4.6,13.4,5.6,20.6c0.5,3.8,0.8,7.7,0.8,11.6C208.5,128,208.3,131,208,134"/>
</svg>
