<?xml version="1.0" encoding="utf-8"?>
<!-- Generator: Adobe Illustrator 27.5.0, SVG Export Plug-In . SVG Version: 6.00 Build 0)  -->
<svg version="1.1" id="Layer_1" xmlns:vectornator="http://vectornator.io"
	 xmlns="http://www.w3.org/2000/svg" xmlns:xlink="http://www.w3.org/1999/xlink" x="0px" y="0px" width="250px" height="250px"
	 viewBox="0 0 250 250" style="enable-background:new 0 0 250 250;" xml:space="preserve">
<style type="text/css">
	.st0{fill:#ED1C24;}
	.st1{fill:none;}
	.st2{fill:#FFFFFF;}
	.st3{enable-background:new    ;}
	.st4{fill:#FF8D00;}
	.st5{fill:#FFEE00;}
	.st6{fill:#028121;}
	.st7{fill:#004CFF;}
	.st8{fill:#760088;}
	.st9{fill:#73D7EE;}
	.st10{fill:#FFAFC7;}
	.st11{fill:#613915;}
	.st12{fill:none;stroke:#FFFFFF;stroke-width:7;stroke-miterlimit:3.2767;}
</style>
<g id="g2896" vectornator:layerName="g2896">
	<path class="st0" d="M125,0C56,0,0,56,0,125s56,125,125,125s125-56,125-125S194,0,125,0z M124.8,40.5c46.5,0,84.1,37.9,84.1,84.6
		s-37.7,84.6-84.1,84.6c-46.5,0-84.1-37.9-84.1-84.6C40.7,78.4,78.3,40.5,124.8,40.5z"/>
</g>
<g>
	<circle class="st1" cx="125" cy="125" r="90"/>
	<path class="st2" d="M96.9,9.4l9.2-1.9l9.8,27.5l-5.9,1.2l-1.6-4.8l-4.5,0.9l0.4,5.1l-5.9,1.2L96.9,9.4z M106.6,26.2l-4-11.9
		l0.9,12.5L106.6,26.2z"/>
	<path class="st2" d="M121.6,6.2l0.8,12.9l2.1-10l2.4,10l0.4-12.9l6-0.1L132,34.9l-5.3,0.1l-2-11.2L123,35l-5.3,0.1l-2.2-28.9
		L121.6,6.2z"/>
	<path class="st2" d="M146.4,8l-4.1,20.2c-0.2,1.2-0.4,3,1.6,3.4s2.5-1.3,2.7-2.5l4.1-20.2l5.8,1.2l-4.1,20.5
		c-1.1,5.3-4.5,7.8-9.7,6.8c-5.1-1-7.4-4.7-6.3-10l4.1-20.5L146.4,8z"/>
</g>
<g>
	<circle class="st1" cx="125" cy="125" r="119"/>
	<path class="st2" d="M71.6,196.9c4.2,3.1,4.5,7.7,1.5,11.8l-1.7,2.2l-4.7-3.5l1.2-1.5c0.7-1,2-2.9,0.2-4.3
		c-1.8-1.4-3.3,0.5-4.1,1.4l-6.7,9c-0.7,1-2,2.9-0.2,4.3s3.3-0.5,4.1-1.4l1.2-1.5l4.7,3.5l-1.7,2.2c-3,4-7.5,5.1-11.7,1.9
		c-4.2-3.1-4.5-7.7-1.5-11.8l7.7-10.4C62.9,194.8,67.4,193.7,71.6,196.9z"/>
	<path class="st2" d="M82.7,204.6l-5.2,11.9l6.5-8l-2.4,10l6.3-11.3l5.4,2.6L78.9,235l-4.7-2.3l3.3-10.9l-6.6,9.3l-4.7-2.3L77.4,202
		L82.7,204.6z"/>
	<path class="st2" d="M96.1,210.5l9.1,2.5l-3.8,29l-5.8-1.6l0.8-5l-4.4-1.2l-1.9,4.7l-5.8-1.6L96.1,210.5z M97.1,230l1.9-12.4
		l-4.9,11.5L97.1,230z"/>
	<path class="st2" d="M125.9,223.9c-0.3-3.8,0.9-9.2,7.4-9.7c6.4-0.6,8.6,4.2,9.1,9.3l1,11.3c0.4,4.7-1.5,8.8-7.6,9.4
		c-6.5,0.6-8.2-3.5-8.7-8.2l5.6-0.5c0.1,1.6,0.6,3.4,2.6,3.2c2.3-0.2,2-3.3,1.7-6.7c0,0-0.9,1-3.2,1.2
		C129.2,233.5,126.4,230.2,125.9,223.9z M136.2,223.6c-0.2-2.3-0.8-3.8-2.5-3.7c-1.7,0.2-2,1.8-1.8,4.1c0.2,2.3,0.8,3.8,2.5,3.7
		C136.1,227.5,136.4,225.9,136.2,223.6z"/>
	<path class="st2" d="M159.5,217.2l3.5,12.5c1.4,4.9-0.5,8.9-5.6,10.3c-5.1,1.4-8.8-1.1-10.2-6l-3.5-12.5c-1.4-4.9,0.5-8.9,5.6-10.3
		C154.4,209.8,158.1,212.4,159.5,217.2z M150.7,225l3.1-6c-0.4-1.3-1.2-2.7-3-2.2c-2.1,0.6-1.7,2.7-1.3,4L150.7,225z M156,226.4
		l-3.2,6c0.4,1.3,1.2,2.6,3,2.1c2.1-0.6,1.7-2.7,1.3-4L156,226.4z"/>
	<path class="st2" d="M175.7,209.4l5.8,11.7c2.2,4.5,1.1,8.9-3.6,11.2c-4.7,2.3-8.9,0.5-11.1-4l-5.8-11.7c-2.2-4.5-1.1-8.9,3.6-11.2
		S173.4,204.9,175.7,209.4z M168.5,218.7l2-6.5c-0.6-1.2-1.7-2.4-3.4-1.6c-2,1-1.2,3-0.6,4.2L168.5,218.7z M173.9,219.1l-2,6.5
		c0.6,1.2,1.7,2.3,3.4,1.5c2-1,1.2-3,0.6-4.2L173.9,219.1z"/>
	<path class="st2" d="M177.3,209c-2.3-3.1-4-8.3,1.2-12.2c5.2-3.9,9.6-0.9,12.6,3.1l6.8,9.1c2.8,3.8,3.3,8.3-1.6,12
		c-5.2,3.9-8.8,1.4-11.7-2.4l4.5-3.3c1,1.3,2.3,2.6,3.9,1.4c1.9-1.4,0-3.9-2-6.6c0,0-0.3,1.3-2.1,2.7
		C185.2,215.4,181.1,214,177.3,209z M186,203.2c-1.4-1.9-2.7-2.9-4.1-1.8c-1.3,1-0.8,2.6,0.6,4.4c1.4,1.9,2.7,2.9,4.1,1.8
		C188,206.6,187.4,205.1,186,203.2z"/>
</g>
<g class="st3">
</g>
<path class="st4" d="M245.2,90.5h-44c-1.5-3.4-3.3-6.7-5.2-9.9h46C243.1,83.9,244.2,87.2,245.2,90.5z"/>
<path class="st5" d="M247.6,100.4h-42.7c-1-3.4-2.3-6.7-3.7-9.8h44C246.1,93.8,246.9,97,247.6,100.4z"/>
<path class="st6" d="M249.1,110.2h-41.9c-0.6-3.4-1.4-6.6-2.4-9.8h42.7C248.2,103.6,248.7,106.9,249.1,110.2z"/>
<path class="st7" d="M249.9,120.1h-41.6c-0.2-3.3-0.6-6.6-1.1-9.9h41.9C249.5,113.5,249.8,116.8,249.9,120.1z"/>
<path class="st8" d="M250,125c0,1.7,0,3.3-0.1,4.9h-41.6c0.1-1.6,0.2-3.3,0.2-4.9s0-3.3-0.2-4.9h41.6C250,121.7,250,123.3,250,125z"
	/>
<path class="st9" d="M249.9,129.9c-0.1,3.3-0.4,6.6-0.8,9.9h-41.9c0.6-3.2,1-6.5,1.1-9.9H249.9z"/>
<path class="st10" d="M249.1,139.8c-0.4,3.3-0.9,6.6-1.6,9.8h-42.7c1-3.2,1.8-6.5,2.4-9.8H249.1z"/>
<path class="st11" d="M247.6,149.6c-0.7,3.3-1.5,6.6-2.4,9.8h-44c1.4-3.2,2.7-6.5,3.7-9.8H247.6z"/>
<path d="M245.2,159.5c-1,3.4-2,6.6-3.3,9.9h-46c2-3.2,3.7-6.4,5.2-9.9H245.2z"/>
<path class="st1" d="M179.4,169.3H197c-14.9,24.1-41.5,40.2-72,40.2c-46.7,0-84.5-37.8-84.5-84.5S78.3,40.5,125,40.5
	c30.4,0,57.1,16.1,72,40.2h-17.5v88.6H179.4z"/>
<path class="st1" d="M250,125c0,1.7,0,3.3-0.1,4.9c-0.1,3.3-0.4,6.6-0.8,9.9c-0.4,3.3-0.9,6.6-1.6,9.8c-0.7,3.3-1.5,6.6-2.4,9.8
	c-1,3.4-2,6.6-3.3,9.9C224,216.5,178.4,250,125,250C56,250,0,194,0,125S56,0,125,0c53.4,0,99,33.5,116.9,80.7
	c1.2,3.2,2.3,6.5,3.3,9.9c0.9,3.2,1.7,6.5,2.4,9.8c0.6,3.2,1.2,6.5,1.6,9.8c0.4,3.2,0.7,6.5,0.8,9.9C250,121.7,250,123.3,250,125z"
	/>
<path class="st2" d="M49.2,182.8c-0.1-0.4-0.2-0.9-0.4-1.3c-1.1-2.6-3.1-4.6-5.6-5.7c-0.5-0.2-1-0.4-1.5-0.5c-1.7-0.4-3.5-0.4-5.2,0
	c-0.4,0.1-0.9,0.2-1.3,0.4c-2.6,1.1-4.6,3.1-5.7,5.6c-0.2,0.5-0.4,1-0.5,1.5c-0.4,1.7-0.5,3.5,0,5.2c0.1,0.4,0.2,0.9,0.4,1.3
	c1.1,2.6,3.1,4.6,5.6,5.7c0.5,0.2,0.9,0.3,1.4,0.5c0.9,0.2,1.8,0.4,2.7,0.4s1.7-0.1,2.6-0.3c0.5-0.1,0.9-0.3,1.4-0.4
	c2.6-1.1,4.6-3.1,5.7-5.6c0.2-0.5,0.4-1,0.5-1.5C49.6,186.3,49.6,184.5,49.2,182.8L49.2,182.8z M41.6,190c-0.2,0.1-0.4,0.2-0.6,0.3
	c-1.3,0.5-2.7,0.5-4,0c-0.2-0.1-0.4-0.2-0.6-0.3c-0.8-0.5-1.4-1.1-1.9-1.9c-0.1-0.2-0.2-0.4-0.3-0.6c-0.5-1.3-0.5-2.7,0-4
	c0.1-0.2,0.2-0.4,0.3-0.6c0.5-0.8,1.1-1.5,1.9-1.9c0.2-0.1,0.5-0.2,0.7-0.3c0.6-0.3,1.3-0.4,2-0.4s1.4,0.1,2.1,0.4
	c0.2,0.1,0.3,0.2,0.5,0.3c0.8,0.5,1.5,1.1,2,2c0.1,0.2,0.2,0.4,0.3,0.6c0.5,1.3,0.5,2.7,0,4c-0.1,0.2-0.2,0.4-0.3,0.6
	C43.1,188.9,42.4,189.5,41.6,190L41.6,190z"/>
<path class="st12" d="M34,177.4C25.1,162,20,144.1,20,125c0-23.4,7.7-45.1,20.7-62.5"/>
<path class="st2" d="M64.2,31.1c-1.7-1-3.7-1.6-5.7-2.1c-2-0.4-4-0.5-6.1-0.3c-2,0.2-3.9,0.7-5.8,1.4c-5.1,2.1-9.1,6-11.2,11.1
	c-0.5,1.3-1,2.5-1.2,3.9c-0.4,2-0.5,4-0.3,6s0.7,3.9,1.4,5.9c2.9,7.4,9.8,12.1,17.2,12.7c0.7,0.1,1.3,0.1,2,0.1
	c1.4,0,2.8-0.1,4.2-0.4c1.2-0.2,2.4-0.5,3.5-1.1c1.3-0.5,2.6-1.2,3.8-2.1c0.1,0,0.1-0.1,0.2-0.1l0.1,0.1L86.1,86
	c1.7,1.7,4.6,1.7,6.3,0l0,0c1.7-1.7,1.7-4.6,0-6.3l0,0L72.5,60c-0.1-0.1-0.2-0.2-0.3-0.3c0.4-0.8,0.9-1.5,1.2-2.4
	c0.9-2,1.3-4,1.5-6.2c0.2-2,0.1-4-0.3-6c-0.2-1.2-0.7-2.4-1.1-3.6C71.5,36.9,68.2,33.4,64.2,31.1 M59.7,62.8
	c-0.2,0.1-0.3,0.1-0.5,0.2c-2.1,0.8-4.1,1-6.1,0.9c-5.3-0.4-10.2-3.8-12.3-9c-0.4-1.2-0.8-2.4-1-3.6c-0.2-2.1-0.1-4,0.5-6
	c0.1-0.5,0.3-1,0.5-1.5c1.5-3.6,4.4-6.3,7.9-7.8c1.4-0.5,2.8-0.9,4.2-1c0.4,0,0.8,0,1.2,0c1.7,0,3.4,0.3,4.9,0.9
	c3.8,1.3,7,4.2,8.6,8.3c0.2,0.4,0.3,0.9,0.4,1.3c0.5,2,0.8,4,0.5,6c-0.2,1.3-0.5,2.6-1.1,3.8C66.2,58.5,63.3,61.3,59.7,62.8
	L59.7,62.8z"/>
</svg>
